# xmcd
#
# Track frame offsets: 
#        150
#        13906
#        28208
#        41948
#        56469
#        69876
#        82472
#        98101
#        110785
#        125285
#        140305
#        154852
#        169029
#        182717
#        196275
#        208782
#        222498
#        237165
#        253528
#        267794
#        281545
#        293854
#        308188
#        321387
#        334430
#
# Disc length: 4651 seconds
#
# Revision: 0
# Processed by: cddbd v1.5.2PL0 Copyright (c) Steve Scherf et al.
# Submitted via: ExactAudioCopy v0.95a5
#
DISCID=88122919
DTITLE=Various Artist - Century of the Blues: The Definitive Country Blues (d
DTITLE=isc two)
DYEAR=2003
DGENRE=Blues
TTITLE0=Matchbox Blues - Blind Lemon Jefferson
TTITLE1=Ground Hog Blues - Ramblin' Thomas
TTITLE2=Gallis Blues - Leadbelly
TTITLE3=Evil Hearted Woman Blues - Oscar "Buddy" Woods
TTITLE4=Outside Woman Blues - Blind Joe Reynolds
TTITLE5=Maxwell Street Blues - Papa Charlie Jackson
TTITLE6=Bulldoze Blues - Henry Thomas
TTITLE7=Black Ace - Black Ace
TTITLE8=It's Nobody's Fault But Mine - Blind Willie Johnson
TTITLE9=Gone Dead Train, The - King Solomon Hill
TTITLE10=Wake Up With The Blues In My FIngers - Lonnie Johnson
TTITLE11=Penitentiary Moan Blues - Texas Alexander
TTITLE12=Katie Mae - Lightnin' Hopkins
TTITLE13=Diddle Wa Diddle - Blind Blake
TTITLE14=I Want Some Of Your Pie - Blind Boy Fuller
TTITLE15=Mama T'aint Long Fo' Day - Blind Willie McTell
TTITLE16=Motherless Chile Blues - Barbecue Bob
TTITLE17=Jealous Hearted Blues - Charley Lincoln
TTITLE18=No No Blues - Curley Weaver
TTITLE19=Guitar Rag - Sylvester Weaver
TTITLE20=Big Legged Blues - Brownie McGhee
TTITLE21=Twelve Gates to the City - Rev. Gary Davis
TTITLE22=Every Day in the Week Blues - Pink Anderson
TTITLE23=Runaway Man Blues - Floyd Council
TTITLE24=Diver Duck Blues - Sleepy John Estes
EXTD=
EXTT0=
EXTT1=
EXTT2=
EXTT3=
EXTT4=
EXTT5=
EXTT6=
EXTT7=
EXTT8=
EXTT9=
EXTT10=
EXTT11=
EXTT12=
EXTT13=
EXTT14=
EXTT15=
EXTT16=
EXTT17=
EXTT18=
EXTT19=
EXTT20=
EXTT21=
EXTT22=
EXTT23=
EXTT24=
PLAYORDER=
